<svg xmlns="http://www.w3.org/2000/svg" version="1.1" xmlns:xlink="http://www.w3.org/1999/xlink" xmlns:svgjs="http://svgjs.com/svgjs" width="512" height="512"><svg version="1.1" id="SvgjsSvg1000" xmlns="http://www.w3.org/2000/svg" xmlns:xlink="http://www.w3.org/1999/xlink" x="0px" y="0px" viewBox="0 0 512 512" style="enable-background:new 0 0 512 512;" xml:space="preserve">
<style type="text/css">
	.st0{fill:#FFFFFF;}
	.st1{fill:#030303;}
</style>
<rect class="st0" width="512" height="512"></rect>
<path class="st1" d="M47.9,255.5c0-118.2,87.8-212.4,220.4-212.4c95.8,0,150.1,47.9,172.5,75.1l-73.5,75.1
	c-16-17.6-41.5-43.1-92.6-43.1c-62.3,0-103.8,46.3-103.8,105.4c0,60.7,43.1,107,108.6,107c46.3,0,70.3-12.8,78.3-19.2V321h-67.1
	v-95.8h172.5v180.5c-44.7,30.3-95.8,63.9-194.8,63.9C135.8,469.5,47.9,375.3,47.9,255.5"></path>
</svg><style>@media (prefers-color-scheme: light) { :root { filter: none; } }
</style></svg>