<?xml version="1.0" encoding="utf-8"?>
<!-- Generator: Adobe Illustrator 28.0.0, SVG Export Plug-In . SVG Version: 6.00 Build 0)  -->
<svg version="1.1" id="Capa_1" xmlns="http://www.w3.org/2000/svg" xmlns:xlink="http://www.w3.org/1999/xlink" x="0px" y="0px"
	 viewBox="0 0 25 25" style="enable-background:new 0 0 25 25;" xml:space="preserve">
<path d="M3.3-6.4c-9,0-9.7,0.7-9.7,9.7v18.3c0,9,0.7,9.7,9.7,9.7h18.3c9,0,9.7-0.7,9.7-9.7V3.4c0-9.1-0.7-9.8-9.8-9.8H3.3z M2.4-5.1
	h20.1c7,0,7.5,0.5,7.5,7.5v20.1c0,7-0.5,7.5-7.5,7.5H2.4c-7,0-7.5-0.5-7.5-7.5V2.4C-5.1-4.6-4.6-5.1,2.4-5.1z M13.8,0.9v15.9
	c0,2.2-1.9,3.3-3.3,3.3c-1,0-3.4-0.8-3.4-3.3c0-2.7,2.2-3.3,3.4-3.3c0.7,0,1,0.1,1,0.1V9.3c0,0-0.5-0.1-1.1-0.1C6,9.3,3,12.8,3,16.8
	c0,3.4,2.7,7.5,7.5,7.5c5.2,0,7.5-4.3,7.5-7.5V8.9c0,0,2.3,1.6,5.4,1.6v-4c-3.5-0.3-5.4-2.6-5.6-5.6H13.8z"/>
</svg>
