<?xml version="1.0" encoding="utf-8"?>
<!-- Generator: Adobe Illustrator 28.0.0, SVG Export Plug-In . SVG Version: 6.00 Build 0)  -->
<svg version="1.1" id="Capa_1" xmlns="http://www.w3.org/2000/svg" xmlns:xlink="http://www.w3.org/1999/xlink" x="0px" y="0px"
	 viewBox="0 0 512 512" style="enable-background:new 0 0 512 512;" xml:space="preserve">
<style type="text/css">
	.st0{opacity:0.89;fill:url(#SVGID_1_);}
	.st1{opacity:0.1;}
	.st2{opacity:0.89;}
</style>
<radialGradient id="SVGID_1_" cx="255.9724" cy="256" r="244.2903" gradientUnits="userSpaceOnUse">
	<stop  offset="5.413970e-02" style="stop-color:#FFCC5F"/>
	<stop  offset="0.2015" style="stop-color:#FFADAA"/>
	<stop  offset="0.3536" style="stop-color:#FFB9C0"/>
	<stop  offset="0.5153" style="stop-color:#FFC4D6"/>
	<stop  offset="0.7434" style="stop-color:#FFC6C7"/>
	<stop  offset="0.8528" style="stop-color:#FFCBA9"/>
	<stop  offset="0.9453" style="stop-color:#FFE0CC"/>
	<stop  offset="1" style="stop-color:#FFFFFF"/>
</radialGradient>
<circle class="st0" cx="256.7" cy="256" r="244.3"/>
<path class="st1" d="M257.2,256.8c39.3,22.8,78.7,45.4,115.9,66.7c-36.9-21.7-76.1-44.7-115.4-67.5c39.2-22.9,78.4-46,115.2-67.8
	c-37.1,21.3-76.4,44.1-115.7,67c0-45.4-0.2-90.9-0.5-133.7c-0.3,42.8-0.5,88.3-0.5,133.7c-39.3-22.8-78.7-45.4-115.9-66.7
	c36.9,21.7,76.1,44.7,115.4,67.5c-39.2,22.9-78.4,46-115.2,67.8c37.1-21.3,76.4-44.1,115.7-67c0,45.4,0.2,90.9,0.5,133.7
	C257.1,347.7,257.2,302.2,257.2,256.8z"/>
<g class="st2">
	<image style="overflow:visible;" width="562" height="562" xlink:href="272B1F96.png"  transform="matrix(1 0 0 1 -25 -25)">
	</image>
</g>
<g>
	<polygon points="96.7,77 102.5,83.7 104,82.5 98.2,75.8 100.7,73.6 99.6,72.4 93.2,77.9 94.2,79.1 	"/>
	<path d="M108,73.9l4.3,1.8l1.6-1.3l-4.7-1.9c0.7-1.1,0.8-2.4-0.2-3.6c-1.5-1.8-3.2-1.4-5,0l-2.7,2.2l6.5,8.2l1.5-1.2l-2.5-3.2
		L108,73.9z M103.8,71l1.1-0.9c1.1-0.9,2-1,2.7-0.1c0.7,0.9,0.5,1.9-0.6,2.8l-1.1,0.9L103.8,71z"/>
	<path d="M116.1,72.9l-1-2.8l2.8-2l2.3,1.8l1.6-1.2l-8.9-6.5l-1.8,1.3l3.4,10.5L116.1,72.9z M112.9,64.1c0.9,0.8,1.9,1.5,2.8,2.2
		l1,0.8l-2.1,1.6l-0.5-1.2C113.7,66.4,113.3,65.2,112.9,64.1L112.9,64.1z"/>
	<path d="M124.4,67l-2.5-3.8c-0.6-1-1.5-1.9-2.2-2.8l0,0l2,1.3l5.6,3.4l1.6-1.1l-5.8-8.7l-1.5,1l2.5,3.8c0.6,1,1.5,2,2.2,2.8l0,0
		l-2-1.3l-5.6-3.4l-1.6,1.1l5.8,8.7L124.4,67z"/>
	<path d="M130.4,57.2L132,57c1.1-0.2,1.8-0.3,2.3,0.5c0.4,0.6,0.1,1.4-0.9,2c-0.9,0.6-2.1,0.7-3.1,0.5l-0.3,1.7
		c1.4,0.3,2.9,0,4.1-0.7c2.1-1.3,2.6-3.2,1.7-4.7c-0.8-1.3-2-1.5-3.4-1.2l-1.5,0.2c-1,0.2-1.9,0.4-2.3-0.3c-0.4-0.7-0.1-1.4,0.8-1.9
		c0.9-0.5,1.7-0.6,2.6-0.5l0.2-1.5c-1.2-0.3-2.5-0.1-3.6,0.6c-1.8,1.1-2.4,3-1.6,4.4C127.9,57.3,129.2,57.4,130.4,57.2z"/>
	<path d="M140.8,56.8l-1.9-3.4l1.4-0.8c2-1.1,3-2.9,1.8-4.9c-1.2-2.1-3-2-5-0.9l-3,1.7l5.1,9.1L140.8,56.8z M136.5,49l1.2-0.7
		c1.3-0.7,2.2-0.7,2.9,0.4c0.6,1.1,0.3,2-1.1,2.8l-1.2,0.7L136.5,49z"/>
	<path d="M145.8,42.1c-2.2,1.1-2.8,3.6-1.3,6.6c1.6,3.1,4,4.1,6.1,3c2.2-1.1,2.8-3.6,1.2-6.7C150.3,42,148,41.1,145.8,42.1z
		 M149.9,50.4c-1.2,0.6-2.6-0.3-3.7-2.5c-1.1-2.1-0.9-3.7,0.3-4.3c1.2-0.6,2.6,0.2,3.6,2.4C151.3,48.2,151.1,49.8,149.9,50.4z"/>
	<path d="M157.7,48.2l-1.7-3.7l1.4-0.6l3.7,2.8l1.9-0.9l-4.1-3c1-0.9,1.3-2.1,0.7-3.6c-1-2.1-2.8-2.1-4.8-1.2l-3.2,1.4L156,49
		L157.7,48.2z M154,40.1l1.3-0.6c1.3-0.6,2.2-0.5,2.7,0.6c0.5,1.1,0,1.9-1.3,2.5l-1.3,0.6L154,40.1z"/>
	<polygon points="163.7,36 167,44.2 168.7,43.5 165.4,35.3 168.5,34 167.9,32.6 160,35.7 160.6,37.2 	"/>
	<polygon points="180.3,39.2 179.7,37.8 175,39.5 174,36.5 177.9,35.2 177.3,33.7 173.5,35.1 172.6,32.5 177.1,30.9 176.6,29.4 
		170.3,31.7 173.8,41.5 	"/>
	<path d="M344.9,38.1c1.3,0.5,2.5,0.4,3.7-0.2l-0.5-1.4c-0.8,0.4-1.6,0.5-2.3,0.2c-1.7-0.7-2.2-2.5-1.3-4.7c0.9-2.2,2.5-3,4.1-2.4
		c0.8,0.3,1.2,0.8,1.5,1.5l1.4-0.7c-0.4-0.9-1.1-1.8-2.3-2.3c-2.6-1-5.3,0.1-6.5,3.2C341.3,34.5,342.5,37.1,344.9,38.1z"/>
	<path d="M350.6,40.2l1.9-2.2l3.2,1.4l-0.4,2.9l1.8,0.8l1.2-10.9l-2-0.9l-7.4,8.1L350.6,40.2z M356.6,33.1L356.6,33.1
		c-0.2,1.2-0.3,2.4-0.5,3.6l-0.2,1.3l-2.4-1.1l0.9-1C355.1,35,355.8,34,356.6,33.1z"/>
	<polygon points="360.2,30.5 359.8,29 356.6,29.9 357,31.1 	"/>
	<path d="M367.7,36.9l-3,3.1l-1.1,1.2l-0.1,0l0.3-1.6l0.7-4.2l-1.8-0.9l-4.7,9.3l1.4,0.7l1.9-3.8c0.5-1,1.3-3,1.7-3.9l0,0l-0.5,2.5
		l-0.5,3.5l0.9,0.5l2.5-2.4l1.7-1.9l0,0c-0.5,0.9-1.7,2.7-2.2,3.7l-1.9,3.8l1.5,0.7l4.7-9.3L367.7,36.9z"/>
	<path d="M372.7,48.2l-0.7,2.9l1.7,1l2.1-10.8l-1.9-1.1l-8.1,7.5l1.7,0.9l2.1-2.1L372.7,48.2z M374.2,42L374.2,42
		c-0.3,1.2-0.5,2.4-0.8,3.5l-0.3,1.3l-2.3-1.3l0.9-0.9C372.5,43.7,373.4,42.8,374.2,42z"/>
	<path d="M376.7,53.8l2.1-3.5l1.3,0.8l-0.2,4.7l1.8,1.1l0.1-5c1.3,0.3,2.5-0.1,3.3-1.4c1.2-2,0.2-3.5-1.7-4.7l-3-1.8l-5.5,8.9
		L376.7,53.8z M381.4,46.2l1.2,0.7c1.2,0.7,1.7,1.5,1,2.5c-0.6,1-1.6,1.1-2.8,0.4l-1.2-0.8L381.4,46.2z"/>
	<path d="M383.9,58.4l2.2-1.9l2.9,1.9l-0.9,2.8l1.6,1.1l3-10.6l-1.8-1.2l-8.6,6.8L383.9,58.4z M391,52.3L391,52.3
		c-0.4,1.2-0.7,2.3-1.1,3.4l-0.4,1.3l-2.2-1.5l1-0.9C389.2,53.9,390.1,53.1,391,52.3z"/>
	<path d="M487.2,222.2c3.4-0.6,5-2.5,4.6-4.9c-0.4-2.4-2.6-3.8-6-3.2c-3.5,0.6-5.1,2.5-4.7,4.9C481.6,221.4,483.8,222.8,487.2,222.2
		z M486.2,216c2.4-0.4,3.8,0.3,4.1,1.6c0.2,1.3-1,2.4-3.4,2.8c-2.4,0.4-3.9-0.2-4.2-1.6C482.6,217.5,483.8,216.4,486.2,216z"/>
	<polygon points="495.5,217.9 492.9,215.8 492.2,216.7 494.4,219.1 	"/>
	<path d="M486.5,228c0.3,2.2,1.5,3.8,3.8,3.6c2.4-0.3,3-2.1,2.7-4.3l-0.4-3.4l-10.4,1.2l0.2,1.8l3.8-0.5L486.5,228z M491.4,225.8
		l0.2,1.4c0.2,1.5-0.2,2.3-1.4,2.5c-1.3,0.2-2-0.5-2.2-2.1l-0.2-1.4L491.4,225.8z"/>
	<polygon points="492.8,241.4 494.4,241.2 493.7,232.8 492.2,232.9 492.4,236.2 483.6,236.9 483.7,238.8 492.6,238.1 	"/>
	<polygon points="493.2,250.5 494.8,250.4 494.5,243.5 493,243.6 493.1,246.1 485.7,246.4 485.6,243.8 484.1,243.9 484.3,250.8 
		485.9,250.7 485.8,248.2 493.1,247.9 	"/>
	<path d="M489.6,253c-3.5-0.1-5.4,2-5.5,4.6c0,1.4,0.5,2.5,1.5,3.4l1.1-1c-0.6-0.6-1-1.3-1-2.1c0-1.8,1.5-3,3.9-2.9
		c2.3,0,3.8,1.3,3.7,3c0,0.8-0.4,1.4-0.9,1.9l1.1,1.1c0.7-0.7,1.3-1.7,1.4-3C495,255.2,493,253.1,489.6,253z"/>
	<path d="M484.3,263.8l2.8,0.9l-0.1,3.5l-2.9,0.7l-0.1,2l10.6-3l0.1-2.2l-10.3-3.8L484.3,263.8z M493.2,266.6L493.2,266.6
		c-1.2,0.3-2.4,0.6-3.5,0.9l-1.3,0.3l0.1-2.6l1.3,0.4C490.9,265.9,492,266.3,493.2,266.6z"/>
	<path d="M323.3,473.9c0,1.2,0.1,2.3,0.1,3.5l-0.1,0c-0.7-1-1.2-2-1.9-3l-2.9-4.6l-1.9,0.6l6.1,9.1l2.1-0.6l0.1-10.9l-1.8,0.5
		L323.3,473.9z"/>
	<polygon points="333.6,474.3 331.2,467.4 333.5,466.6 333,465.1 326.5,467.4 327,468.9 329.4,468 331.8,475 329.4,475.8 
		329.9,477.3 336.5,475 335.9,473.5 	"/>
	<path d="M337.9,463.3l-2.5,1l3.9,9.7l2.6-1c2.8-1.1,3.8-3.5,2.6-6.7C343.1,463,340.7,462.1,337.9,463.3z M341,471.6l-0.7,0.3
		l-2.7-6.9l0.7-0.3c1.9-0.7,3.3-0.1,4.3,2.3C343.5,469.4,342.9,470.9,341,471.6z"/>
	<polygon points="349.8,468 348.5,465.1 352.2,463.5 351.6,462 347.9,463.7 346.8,461.3 351.2,459.3 350.6,457.9 344.4,460.6 
		348.7,470.1 355,467.3 354.3,465.9 	"/>
	<path d="M355.8,455.1c-2.2,1.1-2.8,3.6-1.3,6.6c1.6,3.1,4,4.1,6.1,3.1c2.2-1.1,2.8-3.6,1.2-6.7C360.3,455,357.9,454,355.8,455.1z
		 M359.9,463.4c-1.2,0.6-2.6-0.3-3.7-2.5c-1.1-2.1-0.9-3.8,0.3-4.3s2.6,0.2,3.6,2.4C361.2,461.1,361.1,462.8,359.9,463.4z"/>
	<path d="M371.4,446.7l2.6,10.7l1.6-1l-0.8-2.8l3-1.8l2.2,2l1.7-1l-8.3-7.2L371.4,446.7z M376.7,450.8l-2.3,1.4l-0.3-1.3
		c-0.3-1.1-0.7-2.3-1-3.4l0.1,0c0.8,0.8,1.7,1.7,2.6,2.5L376.7,450.8z"/>
	<path d="M384.3,444.1l-1.5,0.3c-1,0.2-1.9,0.4-2.3-0.2c-0.4-0.6-0.1-1.4,0.7-1.9c0.9-0.6,1.7-0.7,2.6-0.6l0.1-1.5
		c-1.2-0.2-2.5,0-3.5,0.8c-1.8,1.2-2.3,3.1-1.4,4.5c0.9,1.3,2.2,1.3,3.4,1.1l1.5-0.3c1.1-0.2,1.8-0.4,2.3,0.4
		c0.4,0.6,0.2,1.4-0.8,2.1c-0.9,0.6-2,0.8-3.1,0.6l-0.2,1.7c1.4,0.2,2.9-0.1,4.1-0.9c2-1.4,2.4-3.3,1.5-4.7
		C386.9,443.9,385.7,443.8,384.3,444.1z"/>
	<path d="M392.1,438.5l-1.5,0.3c-1,0.3-1.8,0.5-2.3-0.1c-0.5-0.6-0.2-1.4,0.6-2c0.8-0.6,1.6-0.8,2.5-0.7l0.1-1.5
		c-1.2-0.2-2.5,0.1-3.5,0.9c-1.7,1.3-2.2,3.2-1.2,4.5c0.9,1.2,2.3,1.2,3.4,0.9l1.5-0.3c1.1-0.3,1.8-0.5,2.4,0.3
		c0.4,0.6,0.2,1.4-0.8,2.1c-0.9,0.6-2,0.9-3.1,0.8l-0.1,1.7c1.4,0.2,2.9-0.2,4-1.1c2-1.4,2.3-3.4,1.3-4.8
		C394.7,438.2,393.5,438.2,392.1,438.5z"/>
	<polygon points="401.8,436.3 397.2,430.6 399.2,429 398.2,427.8 392.8,432.1 393.8,433.3 395.8,431.7 400.3,437.5 398.4,439 
		399.4,440.3 404.7,436 403.8,434.7 	"/>
	<path d="M407.1,426.4l-1.4,0.4c-1,0.3-1.8,0.7-2.3,0.1c-0.5-0.6-0.3-1.4,0.5-2c0.8-0.7,1.6-0.9,2.5-1l-0.1-1.5
		c-1.2-0.1-2.4,0.4-3.4,1.2c-1.6,1.4-1.9,3.4-0.8,4.6c1,1.2,2.4,1,3.5,0.6l1.5-0.5c1.1-0.3,1.8-0.6,2.4,0.1c0.5,0.6,0.3,1.4-0.6,2.2
		c-0.8,0.7-1.9,1-3,1l0,1.7c1.4,0.1,2.8-0.4,3.9-1.4c1.8-1.6,2-3.6,0.9-4.9C409.7,425.9,408.4,425.9,407.1,426.4z"/>
	<polygon points="413.9,415.8 412.8,414.7 406.7,420.5 407.8,421.6 410.1,419.3 416.3,425.8 417.6,424.5 411.5,418.1 	"/>
	<path d="M91.7,405.2l-1.8-2l-7.7,7l1.9,2.1c2,2.2,4.6,2.4,7.2,0C93.7,410,93.8,407.5,91.7,405.2z M85,411.2l-0.5-0.6l5.5-5l0.5,0.6
		c1.3,1.5,1.3,3.1-0.6,4.8C88,412.7,86.3,412.7,85,411.2z"/>
	<polygon points="98.3,414.4 100.1,416.2 101.2,415.1 96.3,410.2 95.2,411.3 97,413.1 91.8,418.3 90,416.5 88.9,417.6 93.7,422.5 
		94.9,421.4 93.1,419.6 	"/>
	<polygon points="101.4,417.5 103.8,419.8 97.7,426.3 99.1,427.5 105.2,421 107.6,423.3 108.6,422.1 102.4,416.4 	"/>
	<path d="M120,438.1c2.1-2.7,1.7-5.2-0.7-7.1l-2.2-1.7l-6.4,8.2l2.2,1.7C115.3,441.1,117.8,440.8,120,438.1z M113.7,438l-0.6-0.5
		l4.6-5.9l0.6,0.5c1.6,1.2,1.8,2.8,0.2,4.8C116.9,438.9,115.2,439.2,113.7,438z"/>
	<path d="M117.7,443l1.5,1.1l2.3-1.8l2.8,2l-1,2.8l1.6,1.2l3.3-10.5l-1.8-1.3L117.7,443z M125.4,441.6l-0.4,1.2l-2.1-1.5l1-0.8
		c0.9-0.7,1.8-1.5,2.8-2.3l0.1,0C126.2,439.4,125.7,440.6,125.4,441.6z"/>
	<polygon points="137.9,446.1 138.8,444.7 131.7,440.1 130.8,441.4 133.6,443.2 128.7,450.7 130.3,451.7 135.2,444.3 	"/>
	<path d="M134,454.1l1.6,1l2.1-2l3,1.8l-0.8,2.8l1.7,1l2.4-10.7l-1.9-1.1L134,454.1z M142.5,448.7c-0.3,1.1-0.7,2.3-1,3.4l-0.3,1.3
		l-2.3-1.4l1-0.9C140.7,450.3,141.6,449.5,142.5,448.7L142.5,448.7z"/>
	<path d="M160.8,456.6c-2.5-1.2-5.2-0.3-6.7,2.8c-1.5,3.1-0.4,5.8,1.9,6.9c1.3,0.6,2.5,0.6,3.7,0.1l-0.4-1.5c-0.8,0.3-1.6,0.4-2.4,0
		c-1.6-0.8-2.1-2.6-1-4.7c1-2.1,2.7-2.9,4.3-2.1c0.7,0.4,1.2,0.9,1.4,1.6l1.4-0.6C162.7,458.2,162,457.2,160.8,456.6z"/>
	<path d="M168.5,460.1c-2.2-1-4.5,0.1-5.9,3.3c-1.4,3.2-0.6,5.7,1.6,6.7s4.6-0.2,6-3.4C171.5,463.5,170.7,461.1,168.5,460.1z
		 M168.4,465.9c-1,2.3-2.3,3.2-3.5,2.7c-1.2-0.5-1.5-2.1-0.5-4.4c1-2.2,2.3-3.1,3.5-2.6C169.1,462.1,169.3,463.7,168.4,465.9z"/>
	<polygon points="176.2,463.5 174.5,462.8 170.7,472.6 177.1,475 177.6,473.6 173,471.8 	"/>
	<path d="M186.1,466.9c-2.3-0.8-4.5,0.5-5.6,3.8c-1.1,3.3-0.1,5.7,2.2,6.5s4.5-0.6,5.6-3.9C189.4,470,188.4,467.6,186.1,466.9z
		 M186.5,472.7c-0.8,2.3-2,3.4-3.3,3c-1.3-0.4-1.6-2-0.9-4.3c0.8-2.3,2-3.3,3.3-2.9C186.9,468.8,187.3,470.4,186.5,472.7z"/>
	<path d="M195.1,469.9l-3.4-1l-2.9,10.1l1.8,0.5l1.1-3.9l1.5,0.4l1,4.6l2,0.6l-1.2-4.9c1.3-0.1,2.4-0.8,2.8-2.3
		C198.6,471.7,197.2,470.5,195.1,469.9z M196.2,473.4c-0.3,1.1-1.2,1.5-2.6,1.1l-1.4-0.4l0.9-3.3l1.4,0.4
		C195.9,471.6,196.5,472.2,196.2,473.4z"/>
	<polygon points="36.9,307.8 35.9,303.9 34.4,304.3 35.4,308.2 32.5,309 31.3,304.3 29.8,304.7 31.5,311.2 41.6,308.5 41.1,306.7 	
		"/>
	<path d="M34.4,301.6c3.4-0.8,5-2.8,4.4-5.2c-0.5-2.4-2.8-3.6-6.2-2.8c-3.4,0.8-4.9,2.8-4.3,5.2S31,302.4,34.4,301.6z M29.8,298.5
		c-0.3-1.3,0.8-2.4,3.2-3c2.4-0.5,3.9,0,4.2,1.3c0.3,1.3-0.9,2.4-3.3,3C31.6,300.3,30.1,299.8,29.8,298.5z"/>
	<path d="M32.3,292.2c3-0.5,4.6-2.2,4.7-4.1c1.4-0.9,2.3-2.3,1.9-4.2c-0.1-0.6-0.3-1-0.5-1.3l-1.3,0.6c0.1,0.2,0.3,0.5,0.3,0.8
		c0.2,0.9,0,1.8-0.8,2.3c-0.8-1.7-2.9-2.6-5.8-2c-3.4,0.6-5,2.6-4.6,5C26.7,291.5,28.9,292.8,32.3,292.2z M27.8,288.8
		c-0.2-1.3,0.9-2.4,3.3-2.8c2.6-0.5,4,0.2,4.3,1.5s-0.9,2.4-3.5,2.9C29.6,290.7,28.1,290.1,27.8,288.8z"/>
	<path d="M35.4,277.8c-0.3-2.3-1.8-3.4-4.6-3l-6.4,0.9l0.2,1.8l6.5-0.9c1.7-0.2,2.5,0.4,2.7,1.5c0.2,1.1-0.5,1.9-2.2,2.1l-6.5,0.9
		l0.3,1.9l6.4-0.9C34.6,281.6,35.7,280,35.4,277.8z"/>
	<polygon points="25.3,270.2 32.6,269.5 32.9,272 34.4,271.8 33.8,264.9 32.2,265.1 32.4,267.6 25.1,268.3 24.9,265.8 23.3,266 
		24,272.8 25.6,272.7 	"/>
	<path d="M25.9,262.8c1.5-0.1,2.3-1.3,2.6-2.4l0.5-1.5c0.4-1,0.6-1.8,1.5-1.8c0.7,0,1.3,0.6,1.4,1.8c0.1,1.1-0.4,2.1-1,3l1.3,1
		c0.9-1.1,1.4-2.5,1.3-4c-0.1-2.4-1.6-3.8-3.3-3.7c-1.5,0.1-2.2,1.1-2.7,2.4L27,259c-0.3,1-0.6,1.8-1.4,1.9c-0.8,0-1.3-0.6-1.3-1.6
		c-0.1-1.1,0.2-1.8,0.8-2.5l-1.2-0.9c-0.8,0.9-1.2,2.1-1.1,3.4C22.8,261.4,24.2,262.9,25.9,262.8z"/>
	<polygon points="24.1,250.5 33,250.3 33,248.5 24.1,248.6 24,245.3 22.5,245.4 22.6,253.8 24.2,253.8 	"/>
	<path d="M33,242.5l-2.8-0.9l0.1-3.5l2.8-0.7l0-2l-10.5,3.1l0,2.2l10.4,3.6L33,242.5z M24,239.8L24,239.8c1.2-0.3,2.4-0.6,3.5-0.9
		l1.3-0.3l-0.1,2.6l-1.3-0.4C26.3,240.4,25.2,240.1,24,239.8z"/>
</g>
</svg>
