<?xml version="1.0" encoding="UTF-8"?><svg id="Capa_2" xmlns="http://www.w3.org/2000/svg" viewBox="0 0 18.77 18.77"><defs><style>.cls-1{stroke-width:0px;}</style></defs><g id="Capa_1-2"><path class="cls-1" d="M10.65,9.39l7.86-7.86c.35-.35.35-.91,0-1.26s-.91-.35-1.26,0l-7.86,7.86L1.53.26C1.18-.09.61-.09.26.26S-.09,1.18.26,1.52l7.86,7.86L.26,17.25c-.35.35-.35.91,0,1.26.17.17.4.26.63.26s.46-.09.63-.26l7.86-7.86,7.86,7.86c.17.17.4.26.63.26s.46-.09.63-.26c.35-.35.35-.91,0-1.26l-7.86-7.86Z"/></g></svg>