<?xml version="1.0" encoding="utf-8"?>
<!-- Generator: Adobe Illustrator 24.0.2, SVG Export Plug-In . SVG Version: 6.00 Build 0)  -->
<svg version="1.1" id="Layer_1" xmlns="http://www.w3.org/2000/svg" xmlns:xlink="http://www.w3.org/1999/xlink" x="0px" y="0px"
	 viewBox="0 0 133.6 40.3" style="enable-background:new 0 0 133.6 40.3;" xml:space="preserve">
<style type="text/css">
	.st0{fill:#030303;}
</style>
<rect x="92.4" y="2.1" class="st0" width="36.8" height="3"/>
<rect x="92.4" y="36.1" class="st0" width="36.8" height="3"/>
<path class="st0" d="M3.5,18.1C3.5,10.7,9,4.8,17.3,4.8c6,0,9.4,3,10.8,4.7l-4.6,4.7c-1-1.1-2.6-2.7-5.8-2.7c-3.9,0-6.5,2.9-6.5,6.6
	c0,3.8,2.7,6.7,6.8,6.7c2.9,0,4.4-0.8,4.9-1.2v-1.4h-4.2v-6h10.8v11.3c-2.8,1.9-6,4-12.2,4C9,31.5,3.5,25.6,3.5,18.1"/>
<path class="st0" d="M38.2,27l-1.3,4.1h-6.1l7.4-21.3h6.4l7.4,21.3h-6.1L44.6,27H38.2z M41.4,16.1l-1.8,6.1h3.5L41.4,16.1z"/>
<path class="st0" d="M53.8,9.8h7.5c5.3,0,7.8,2.6,7.8,6.7c0,2.3-1,4.5-2.8,5.6l4.9,8.9h-6.7l-3.6-7.5h-1.1v7.5h-6V9.8z M60.8,18.6
	c1.4,0,2.1-0.8,2.1-1.9c0-1.2-0.7-1.9-2.1-1.9h-1v3.8H60.8z"/>
<path class="st0" d="M83.3,9.4c2.6,0,4.9,0.8,6.4,1.8l-1.7,5.3c-1-0.8-2.5-1.6-4.5-1.6c-3.2,0-5.4,2.4-5.4,5.5
	c0,3.2,2.2,5.5,5.4,5.5c2,0,3.5-0.8,4.5-1.6l1.7,5.3c-1.5,1.1-3.9,1.8-6.4,1.8c-6.9,0-11.4-4.9-11.4-11.1
	C71.9,14.3,76.4,9.4,83.3,9.4"/>
<rect x="92.3" y="9.8" class="st0" width="6" height="21.3"/>
<path class="st0" d="M107.6,27l-1.3,4.1h-6.1l7.4-21.3h6.4l7.4,21.3h-6.1L114,27H107.6z M110.8,16.1l-1.8,6.1h3.5L110.8,16.1z"/>
<path class="st0" d="M125.7,24.7c2,0,3.4,1.5,3.4,3.4c0,1.8-1.5,3.3-3.4,3.3s-3.4-1.5-3.4-3.3C122.3,26.2,123.7,24.7,125.7,24.7"/>
</svg>
