<?xml version="1.0" encoding="utf-8"?>
<!-- Generator: Adobe Illustrator 24.0.2, SVG Export Plug-In . SVG Version: 6.00 Build 0)  -->
<svg version="1.1" id="Layer_1" xmlns="http://www.w3.org/2000/svg" xmlns:xlink="http://www.w3.org/1999/xlink" x="0px" y="0px"
	 viewBox="0 0 148.3 143.8" style="enable-background:new 0 0 148.3 143.8;" xml:space="preserve">
<style type="text/css">
	.st0{fill:#010101;}
</style>
<path class="st0" d="M141.8,132.9L93.8,85c7-8.7,11.2-19.7,11.2-31.7c0-27.9-22.7-50.6-50.6-50.6S3.9,25.3,3.9,53.2
	s22.7,50.6,50.6,50.6c12,0,23-4.2,31.7-11.2l47.9,47.9c1.1,1.1,2.4,1.6,3.8,1.6c1.4,0,2.8-0.5,3.8-1.6
	C143.9,138.4,143.9,135,141.8,132.9z M14.7,53.2c0-21.9,17.9-39.8,39.8-39.8s39.8,17.9,39.8,39.8S76.4,93,54.5,93
	S14.7,75.2,14.7,53.2z"/>
</svg>
