<?xml version="1.0" encoding="utf-8"?>
<!-- Generator: Adobe Illustrator 28.1.0, SVG Export Plug-In . SVG Version: 6.00 Build 0)  -->
<svg version="1.1" id="Layer_1" xmlns="http://www.w3.org/2000/svg" xmlns:xlink="http://www.w3.org/1999/xlink" x="0px" y="0px"
	 viewBox="0 0 148.3 86.5" style="enable-background:new 0 0 148.3 86.5;" xml:space="preserve">
<g>
	<rect x="10.2" y="20.8" width="63.2" height="63.2"/>
</g>
<g>
	<path d="M128.9,32.4c0-9.5-7.7-17.1-17.1-17.1S94.6,23,94.6,32.4c0,9.5,7.7,17.1,17.1,17.1S128.9,41.9,128.9,32.4"/>
</g>
<g>
	<path d="M139.6,86.5c-0.6,0-1.2-0.2-1.7-0.7L53.2,4.2c-1-0.9-1-2.4-0.1-3.4s2.4-1,3.4-0.1l84.8,81.6c1,0.9,1,2.4,0.1,3.4
		C140.9,86.2,140.3,86.5,139.6,86.5z"/>
</g>
</svg>
