<?xml version="1.0" encoding="utf-8"?>
<!-- Generator: Adobe Illustrator 24.0.2, SVG Export Plug-In . SVG Version: 6.00 Build 0)  -->
<svg version="1.1" id="Layer_1" xmlns="http://www.w3.org/2000/svg" xmlns:xlink="http://www.w3.org/1999/xlink" x="0px" y="0px"
	 viewBox="0 0 148.3 143.8" style="enable-background:new 0 0 148.3 143.8;" xml:space="preserve">
<style type="text/css">
	.st0{fill:#010101;}
</style>
<g>
	<path class="st0" d="M137.5,3.6H9.9c-2.3,0-4.3,1.9-4.3,4.3v127.6c0,2.3,1.9,4.3,4.3,4.3h127.6c2.3,0,4.3-1.9,4.3-4.3V7.9
		C141.8,5.5,139.9,3.6,137.5,3.6z M133.3,131.3H14.2V12.2h119.1V131.3z"/>
	<path class="st0" d="M57.2,49H114c2.3,0,4.3-1.9,4.3-4.3s-1.9-4.3-4.3-4.3H57.2c-2.3,0-4.3,1.9-4.3,4.3S54.9,49,57.2,49z"/>
	<path class="st0" d="M33.4,49h5.7c2.3,0,4.3-1.9,4.3-4.3s-1.9-4.3-4.3-4.3h-5.7c-2.3,0-4.3,1.9-4.3,4.3S31.1,49,33.4,49z"/>
	<path class="st0" d="M57.2,76H114c2.3,0,4.3-1.9,4.3-4.3s-1.9-4.3-4.3-4.3H57.2c-2.3,0-4.3,1.9-4.3,4.3S54.9,76,57.2,76z"/>
	<path class="st0" d="M33.4,76h5.7c2.3,0,4.3-1.9,4.3-4.3s-1.9-4.3-4.3-4.3h-5.7c-2.3,0-4.3,1.9-4.3,4.3S31.1,76,33.4,76z"/>
	<path class="st0" d="M57.2,102.9H114c2.3,0,4.3-1.9,4.3-4.3c0-2.3-1.9-4.3-4.3-4.3H57.2c-2.3,0-4.3,1.9-4.3,4.3
		C53,101,54.9,102.9,57.2,102.9z"/>
	<path class="st0" d="M33.4,102.9h5.7c2.3,0,4.3-1.9,4.3-4.3c0-2.3-1.9-4.3-4.3-4.3h-5.7c-2.3,0-4.3,1.9-4.3,4.3
		C29.2,101,31.1,102.9,33.4,102.9z"/>
</g>
</svg>
